<svg xmlns="http://www.w3.org/2000/svg" xmlns:xlink="http://www.w3.org/1999/xlink" width="1920" zoomAndPan="magnify" viewBox="0 0 1440 809.999993" height="1080" preserveAspectRatio="xMidYMid meet" version="1.0"><defs><g/></defs><g fill="#ffffff" fill-opacity="1"><g transform="translate(575.999977, 410.594256)"><g><path d="M 24.171875 -55.765625 C 27.128906 -55.765625 30.023438 -55.332031 32.859375 -54.46875 C 35.691406 -53.601562 37.796875 -52.753906 39.171875 -51.921875 L 41.15625 -50.59375 L 36.109375 -40.625 C 35.710938 -40.894531 35.160156 -41.238281 34.453125 -41.65625 C 33.742188 -42.082031 32.414062 -42.648438 30.46875 -43.359375 C 28.519531 -44.066406 26.707031 -44.421875 25.03125 -44.421875 C 22.945312 -44.421875 21.335938 -43.976562 20.203125 -43.09375 C 19.078125 -42.207031 18.515625 -41.007812 18.515625 -39.5 C 18.515625 -38.75 18.78125 -38.050781 19.3125 -37.40625 C 19.84375 -36.769531 20.75 -36.082031 22.03125 -35.34375 C 23.320312 -34.613281 24.453125 -34.03125 25.421875 -33.59375 C 26.398438 -33.15625 27.90625 -32.492188 29.9375 -31.609375 C 33.476562 -30.097656 36.5 -28.046875 39 -25.453125 C 41.5 -22.867188 42.75 -19.9375 42.75 -16.65625 C 42.75 -13.519531 42.1875 -10.773438 41.0625 -8.421875 C 39.9375 -6.078125 38.382812 -4.238281 36.40625 -2.90625 C 34.4375 -1.582031 32.257812 -0.601562 29.875 0.03125 C 27.488281 0.675781 24.898438 1 22.109375 1 C 19.710938 1 17.363281 0.753906 15.0625 0.265625 C 12.769531 -0.222656 10.847656 -0.832031 9.296875 -1.5625 C 7.742188 -2.289062 6.347656 -3.007812 5.109375 -3.71875 C 3.867188 -4.425781 2.960938 -5.023438 2.390625 -5.515625 L 1.53125 -6.234375 L 7.765625 -16.734375 C 8.296875 -16.285156 9.023438 -15.71875 9.953125 -15.03125 C 10.890625 -14.351562 12.539062 -13.4375 14.90625 -12.28125 C 17.269531 -11.132812 19.359375 -10.5625 21.171875 -10.5625 C 26.441406 -10.5625 29.078125 -12.351562 29.078125 -15.9375 C 29.078125 -16.6875 28.890625 -17.378906 28.515625 -18.015625 C 28.140625 -18.660156 27.472656 -19.300781 26.515625 -19.9375 C 25.566406 -20.582031 24.726562 -21.09375 24 -21.46875 C 23.269531 -21.851562 22.070312 -22.429688 20.40625 -23.203125 C 18.75 -23.972656 17.523438 -24.5625 16.734375 -24.96875 C 13.410156 -26.601562 10.84375 -28.644531 9.03125 -31.09375 C 7.21875 -33.550781 6.3125 -36.195312 6.3125 -39.03125 C 6.3125 -43.945312 8.125 -47.960938 11.75 -51.078125 C 15.375 -54.203125 19.515625 -55.765625 24.171875 -55.765625 Z M 24.171875 -55.765625 "/></g></g></g><g fill="#ffffff" fill-opacity="1"><g transform="translate(617.296721, 410.594256)"><g><path d="M 6.3125 -4.203125 C 3.125 -7.679688 1.53125 -11.941406 1.53125 -16.984375 C 1.53125 -22.035156 3.125 -26.304688 6.3125 -29.796875 C 9.5 -33.296875 13.546875 -35.046875 18.453125 -35.046875 C 22.972656 -35.046875 26.691406 -33.632812 29.609375 -30.8125 L 29.609375 -34.0625 L 41.359375 -34.0625 L 41.359375 0 L 29.75 0 L 29.75 -3.84375 L 29.609375 -3.84375 C 26.691406 -0.613281 22.972656 1 18.453125 1 C 13.546875 1 9.5 -0.734375 6.3125 -4.203125 Z M 16.296875 -22.765625 C 14.773438 -21.265625 14.015625 -19.34375 14.015625 -17 C 14.015625 -14.65625 14.742188 -12.738281 16.203125 -11.25 C 17.660156 -9.769531 19.582031 -9.03125 21.96875 -9.03125 C 24.269531 -9.03125 26.160156 -9.78125 27.640625 -11.28125 C 29.128906 -12.789062 29.875 -14.695312 29.875 -17 C 29.875 -19.34375 29.109375 -21.265625 27.578125 -22.765625 C 26.054688 -24.273438 24.1875 -25.03125 21.96875 -25.03125 C 19.71875 -25.03125 17.828125 -24.273438 16.296875 -22.765625 Z M 16.296875 -22.765625 "/></g></g></g><g fill="#ffffff" fill-opacity="1"><g transform="translate(659.323788, 410.594256)"><g><path d="M 5.96875 -34.0625 L 5.96875 -46.734375 L 17.71875 -46.734375 L 17.71875 -34.0625 L 24.890625 -34.0625 L 24.890625 -25.09375 L 17.71875 -25.09375 L 17.71875 -14.28125 C 17.71875 -11.132812 18.601562 -9.5625 20.375 -9.5625 C 20.820312 -9.5625 21.285156 -9.648438 21.765625 -9.828125 C 22.253906 -10.003906 22.632812 -10.179688 22.90625 -10.359375 L 23.296875 -10.625 L 26.21875 -1.125 C 23.695312 0.289062 20.820312 1 17.59375 1 C 15.382812 1 13.484375 0.613281 11.890625 -0.15625 C 10.296875 -0.9375 9.085938 -1.976562 8.265625 -3.28125 C 7.441406 -4.59375 6.851562 -5.96875 6.5 -7.40625 C 6.144531 -8.84375 5.96875 -10.378906 5.96875 -12.015625 L 5.96875 -25.09375 L 1.0625 -25.09375 L 1.0625 -34.0625 Z M 5.96875 -34.0625 "/></g></g></g><g fill="#ffffff" fill-opacity="1"><g transform="translate(682.229541, 410.594256)"><g><path d="M 3.984375 0 L 3.984375 -57.09375 L 15.734375 -57.09375 L 15.734375 -30.46875 L 15.875 -30.46875 C 18.925781 -33.519531 22.175781 -35.046875 25.625 -35.046875 C 27.3125 -35.046875 28.984375 -34.820312 30.640625 -34.375 C 32.296875 -33.9375 33.882812 -33.253906 35.40625 -32.328125 C 36.9375 -31.398438 38.175781 -30.082031 39.125 -28.375 C 40.082031 -26.675781 40.5625 -24.695312 40.5625 -22.4375 L 40.5625 0 L 28.8125 0 L 28.8125 -19.25 C 28.8125 -21.019531 28.242188 -22.566406 27.109375 -23.890625 C 25.984375 -25.222656 24.515625 -25.890625 22.703125 -25.890625 C 20.929688 -25.890625 19.328125 -25.203125 17.890625 -23.828125 C 16.453125 -22.460938 15.734375 -20.9375 15.734375 -19.25 L 15.734375 0 Z M 3.984375 0 "/></g></g></g><g fill="#ffffff" fill-opacity="1"><g transform="translate(722.79596, 410.594256)"><g><path d="M 29.8125 -34.0625 L 43.359375 -34.0625 L 16.59375 17.265625 L 3.046875 17.265625 L 14.8125 -5.3125 L -1.328125 -34.0625 L 12.21875 -34.0625 L 21.703125 -16.59375 Z M 29.8125 -34.0625 "/></g></g></g><g fill="#ffffff" fill-opacity="1"><g transform="translate(761.50335, 410.594256)"><g><path d="M 6.3125 -4.203125 C 3.125 -7.679688 1.53125 -11.941406 1.53125 -16.984375 C 1.53125 -22.035156 3.125 -26.304688 6.3125 -29.796875 C 9.5 -33.296875 13.546875 -35.046875 18.453125 -35.046875 C 22.972656 -35.046875 26.691406 -33.632812 29.609375 -30.8125 L 29.609375 -34.0625 L 41.359375 -34.0625 L 41.359375 0 L 29.75 0 L 29.75 -3.84375 L 29.609375 -3.84375 C 26.691406 -0.613281 22.972656 1 18.453125 1 C 13.546875 1 9.5 -0.734375 6.3125 -4.203125 Z M 16.296875 -22.765625 C 14.773438 -21.265625 14.015625 -19.34375 14.015625 -17 C 14.015625 -14.65625 14.742188 -12.738281 16.203125 -11.25 C 17.660156 -9.769531 19.582031 -9.03125 21.96875 -9.03125 C 24.269531 -9.03125 26.160156 -9.78125 27.640625 -11.28125 C 29.128906 -12.789062 29.875 -14.695312 29.875 -17 C 29.875 -19.34375 29.109375 -21.265625 27.578125 -22.765625 C 26.054688 -24.273438 24.1875 -25.03125 21.96875 -25.03125 C 19.71875 -25.03125 17.828125 -24.273438 16.296875 -22.765625 Z M 16.296875 -22.765625 "/></g></g></g></svg>