<svg xmlns="http://www.w3.org/2000/svg" xmlns:xlink="http://www.w3.org/1999/xlink" width="1920" zoomAndPan="magnify" viewBox="0 0 1440 809.999993" height="1080" preserveAspectRatio="xMidYMid meet" version="1.0"><defs><g/></defs><g fill="#ffffff" fill-opacity="1"><g transform="translate(575.999977, 382.957478)"><g><path d="M 12.71875 -29.34375 C 14.28125 -29.34375 15.804688 -29.113281 17.296875 -28.65625 C 18.785156 -28.207031 19.890625 -27.765625 20.609375 -27.328125 L 21.65625 -26.625 L 19 -21.375 C 18.789062 -21.519531 18.5 -21.703125 18.125 -21.921875 C 17.757812 -22.140625 17.0625 -22.4375 16.03125 -22.8125 C 15.007812 -23.1875 14.054688 -23.375 13.171875 -23.375 C 12.078125 -23.375 11.234375 -23.140625 10.640625 -22.671875 C 10.046875 -22.203125 9.75 -21.570312 9.75 -20.78125 C 9.75 -20.382812 9.890625 -20.019531 10.171875 -19.6875 C 10.453125 -19.351562 10.925781 -18.992188 11.59375 -18.609375 C 12.269531 -18.222656 12.863281 -17.910156 13.375 -17.671875 C 13.894531 -17.441406 14.6875 -17.09375 15.75 -16.625 C 17.613281 -15.832031 19.203125 -14.753906 20.515625 -13.390625 C 21.835938 -12.035156 22.5 -10.492188 22.5 -8.765625 C 22.5 -7.109375 22.203125 -5.660156 21.609375 -4.421875 C 21.015625 -3.191406 20.195312 -2.226562 19.15625 -1.53125 C 18.125 -0.832031 16.976562 -0.316406 15.71875 0.015625 C 14.457031 0.359375 13.097656 0.53125 11.640625 0.53125 C 10.378906 0.53125 9.140625 0.398438 7.921875 0.140625 C 6.710938 -0.117188 5.703125 -0.4375 4.890625 -0.8125 C 4.078125 -1.195312 3.34375 -1.578125 2.6875 -1.953125 C 2.039062 -2.328125 1.5625 -2.644531 1.25 -2.90625 L 0.796875 -3.28125 L 4.09375 -8.796875 C 4.363281 -8.566406 4.742188 -8.269531 5.234375 -7.90625 C 5.722656 -7.550781 6.59375 -7.070312 7.84375 -6.46875 C 9.09375 -5.863281 10.191406 -5.5625 11.140625 -5.5625 C 13.910156 -5.5625 15.296875 -6.503906 15.296875 -8.390625 C 15.296875 -8.785156 15.195312 -9.148438 15 -9.484375 C 14.800781 -9.816406 14.453125 -10.148438 13.953125 -10.484375 C 13.453125 -10.828125 13.007812 -11.097656 12.625 -11.296875 C 12.238281 -11.492188 11.609375 -11.796875 10.734375 -12.203125 C 9.867188 -12.617188 9.222656 -12.929688 8.796875 -13.140625 C 7.054688 -13.992188 5.707031 -15.066406 4.75 -16.359375 C 3.789062 -17.660156 3.3125 -19.054688 3.3125 -20.546875 C 3.3125 -23.128906 4.265625 -25.238281 6.171875 -26.875 C 8.085938 -28.519531 10.269531 -29.34375 12.71875 -29.34375 Z M 12.71875 -29.34375 "/></g></g></g><g fill="#ffffff" fill-opacity="1"><g transform="translate(597.73269, 382.957478)"><g><path d="M 3.3125 -2.21875 C 1.632812 -4.050781 0.796875 -6.289062 0.796875 -8.9375 C 0.796875 -11.59375 1.632812 -13.84375 3.3125 -15.6875 C 4.988281 -17.53125 7.125 -18.453125 9.71875 -18.453125 C 12.09375 -18.453125 14.046875 -17.707031 15.578125 -16.21875 L 15.578125 -17.921875 L 21.765625 -17.921875 L 21.765625 0 L 15.65625 0 L 15.65625 -2.03125 L 15.578125 -2.03125 C 14.046875 -0.320312 12.09375 0.53125 9.71875 0.53125 C 7.125 0.53125 4.988281 -0.382812 3.3125 -2.21875 Z M 8.578125 -11.984375 C 7.773438 -11.191406 7.375 -10.175781 7.375 -8.9375 C 7.375 -7.707031 7.753906 -6.703125 8.515625 -5.921875 C 9.285156 -5.140625 10.300781 -4.75 11.5625 -4.75 C 12.769531 -4.75 13.765625 -5.144531 14.546875 -5.9375 C 15.328125 -6.726562 15.71875 -7.726562 15.71875 -8.9375 C 15.71875 -10.175781 15.316406 -11.191406 14.515625 -11.984375 C 13.710938 -12.773438 12.726562 -13.171875 11.5625 -13.171875 C 10.375 -13.171875 9.378906 -12.773438 8.578125 -11.984375 Z M 8.578125 -11.984375 "/></g></g></g><g fill="#ffffff" fill-opacity="1"><g transform="translate(619.849743, 382.957478)"><g><path d="M 3.140625 -17.921875 L 3.140625 -24.59375 L 9.328125 -24.59375 L 9.328125 -17.921875 L 13.09375 -17.921875 L 13.09375 -13.203125 L 9.328125 -13.203125 L 9.328125 -7.515625 C 9.328125 -5.859375 9.789062 -5.03125 10.71875 -5.03125 C 10.957031 -5.03125 11.203125 -5.078125 11.453125 -5.171875 C 11.710938 -5.265625 11.910156 -5.359375 12.046875 -5.453125 L 12.265625 -5.59375 L 13.796875 -0.59375 C 12.472656 0.15625 10.960938 0.53125 9.265625 0.53125 C 8.097656 0.53125 7.09375 0.328125 6.25 -0.078125 C 5.414062 -0.492188 4.78125 -1.046875 4.34375 -1.734375 C 3.914062 -2.421875 3.609375 -3.140625 3.421875 -3.890625 C 3.234375 -4.648438 3.140625 -5.460938 3.140625 -6.328125 L 3.140625 -13.203125 L 0.5625 -13.203125 L 0.5625 -17.921875 Z M 3.140625 -17.921875 "/></g></g></g><g fill="#ffffff" fill-opacity="1"><g transform="translate(631.903979, 382.957478)"><g><path d="M 2.09375 0 L 2.09375 -30.046875 L 8.28125 -30.046875 L 8.28125 -16.03125 L 8.34375 -16.03125 C 9.957031 -17.644531 11.671875 -18.453125 13.484375 -18.453125 C 14.367188 -18.453125 15.25 -18.332031 16.125 -18.09375 C 17 -17.863281 17.835938 -17.503906 18.640625 -17.015625 C 19.441406 -16.523438 20.09375 -15.832031 20.59375 -14.9375 C 21.09375 -14.039062 21.34375 -13 21.34375 -11.8125 L 21.34375 0 L 15.15625 0 L 15.15625 -10.125 C 15.15625 -11.0625 14.859375 -11.878906 14.265625 -12.578125 C 13.671875 -13.273438 12.898438 -13.625 11.953125 -13.625 C 11.015625 -13.625 10.164062 -13.257812 9.40625 -12.53125 C 8.65625 -11.8125 8.28125 -11.007812 8.28125 -10.125 L 8.28125 0 Z M 2.09375 0 "/></g></g></g><g fill="#ffffff" fill-opacity="1"><g transform="translate(653.252342, 382.957478)"><g><path d="M 15.6875 -17.921875 L 22.8125 -17.921875 L 8.734375 9.078125 L 1.609375 9.078125 L 7.796875 -2.796875 L -0.703125 -17.921875 L 6.421875 -17.921875 L 11.421875 -8.734375 Z M 15.6875 -17.921875 "/></g></g></g><g fill="#ffffff" fill-opacity="1"><g transform="translate(673.622379, 382.957478)"><g><path d="M 3.3125 -2.21875 C 1.632812 -4.050781 0.796875 -6.289062 0.796875 -8.9375 C 0.796875 -11.59375 1.632812 -13.84375 3.3125 -15.6875 C 4.988281 -17.53125 7.125 -18.453125 9.71875 -18.453125 C 12.09375 -18.453125 14.046875 -17.707031 15.578125 -16.21875 L 15.578125 -17.921875 L 21.765625 -17.921875 L 21.765625 0 L 15.65625 0 L 15.65625 -2.03125 L 15.578125 -2.03125 C 14.046875 -0.320312 12.09375 0.53125 9.71875 0.53125 C 7.125 0.53125 4.988281 -0.382812 3.3125 -2.21875 Z M 8.578125 -11.984375 C 7.773438 -11.191406 7.375 -10.175781 7.375 -8.9375 C 7.375 -7.707031 7.753906 -6.703125 8.515625 -5.921875 C 9.285156 -5.140625 10.300781 -4.75 11.5625 -4.75 C 12.769531 -4.75 13.765625 -5.144531 14.546875 -5.9375 C 15.328125 -6.726562 15.71875 -7.726562 15.71875 -8.9375 C 15.71875 -10.175781 15.316406 -11.191406 14.515625 -11.984375 C 13.710938 -12.773438 12.726562 -13.171875 11.5625 -13.171875 C 10.375 -13.171875 9.378906 -12.773438 8.578125 -11.984375 Z M 8.578125 -11.984375 "/></g></g></g></svg>